# xmcd CD database file
#
# Track frame offsets:
#	150
#	11060
#	19913
#	32650
#	42314
#	53761
#	63126
#	71618
#	83752
#	92697
#	104177
#	115144
#	120566
#	134244
#
# Disc length: 1949 seconds
#
# Revision: 0
# Processed by: cddbd v1.5.2PL0 Copyright (c) Steve Scherf et al.
# Submitted via: Feurio! 1.68 - http://www.feurio.com
#
DISCID=c1079b0e
DTITLE=Elvis Presley - The Golden Hits CD1
DYEAR=1900
DGENRE=
TTITLE0=Jailhouse Rock
TTITLE1=All Shook Up
TTITLE2=Playing For Keeps
TTITLE3=True Love
TTITLE4=Too Much
TTITLE5=Young and Beautiful
TTITLE6=Baby I Don´t Care
TTITLE7=Blueberry Hill
TTITLE8=Don´t Leave Me Now
TTITLE9=Got A Lot O´ Livin To Do
TTITLE10=Have I Told You Lately That I Love You
TTITLE11=Hot Dog
TTITLE12=Lonesome Cowboy
TTITLE13=I Need You So
EXTD=
EXTT0=
EXTT1=
EXTT2=
EXTT3=
EXTT4=
EXTT5=
EXTT6=
EXTT7=
EXTT8=
EXTT9=
EXTT10=
EXTT11=
EXTT12=
EXTT13=
PLAYORDER=
